<svg xmlns="http://www.w3.org/2000/svg" viewBox="0 0 32 32" width="32" height="32">
  <defs>
    <linearGradient id="hg" x1="0%" y1="0%" x2="100%" y2="100%">
      <stop offset="0%" stop-color="#2a6f9e"/>
      <stop offset="100%" stop-color="#2e8f82"/>
    </linearGradient>
  </defs>
  <!-- Heart shape -->
  <path d="M16 28 C12 24 2 18 2 10.5 C2 6 5.5 3 9.5 3 C12.5 3 14.8 4.8 16 7 C17.2 4.8 19.5 3 22.5 3 C26.5 3 30 6 30 10.5 C30 18 20 24 16 28Z"
        fill="url(#hg)"/>
  <!-- Heartbeat pulse line -->
  <path d="M4 15.5 L11 15.5 L13 12 L15 19 L17 11 L19 16 L21 15.5 L28 15.5"
        fill="none" stroke="#ffffff" stroke-width="1.8" stroke-linecap="round" stroke-linejoin="round" opacity="0.9"/>
</svg>
